<svg width="256" height="256" viewBox="0 0 24 24" xmlns="http://www.w3.org/2000/svg"><rect x="0" y="0" width="24" height="24" rx="8" fill="none"/><svg xmlns="http://www.w3.org/2000/svg" viewBox="0 0 24 24" fill="#000000" x="0" y="0" width="24" height="24"><g fill="none" stroke="#000000" stroke-linecap="round" stroke-linejoin="round" stroke-width="2"><path d="M18 2H6a2 2 0 0 0-2 2v16a2 2 0 0 0 2 2h12a2 2 0 0 0 2-2V4a2 2 0 0 0-2-2Z"/><path d="m9 16l.348-.24c1.465-1.013 3.84-1.013 5.304 0L15 16M8 7h.01M16 7h.01M12 7h.01M12 11h.01M16 11h.01M8 11h.01M10 22v-6.5m4 0V22"/></g></svg></svg>